<?xml version="1.0" standalone="no"?>
<!DOCTYPE svg PUBLIC "-//W3C//DTD SVG 20010904//EN"
 "http://www.w3.org/TR/2001/REC-SVG-20010904/DTD/svg10.dtd">
<svg version="1.0" xmlns="http://www.w3.org/2000/svg"
 width="1384.000000pt" height="1136.000000pt" viewBox="0 0 1384.000000 1136.000000"
 preserveAspectRatio="xMidYMid meet">

<g transform="translate(0.000000,1136.000000) scale(0.100000,-0.100000)"
fill="#000000" stroke="none">
<path d="M6725 10559 c-252 -10 -678 -60 -820 -96 -33 -9 -103 -24 -155 -33
-74 -14 -243 -56 -375 -94 -5 -1 -21 -8 -35 -14 -14 -6 -86 -32 -160 -57 -146
-51 -221 -81 -315 -125 -33 -15 -82 -35 -110 -44 -27 -9 -86 -34 -129 -56 -44
-22 -86 -40 -93 -40 -7 0 -13 -4 -13 -10 0 -5 -5 -10 -11 -10 -6 0 -31 -13
-56 -30 -24 -16 -49 -30 -55 -30 -6 0 -19 -6 -27 -14 -9 -7 -47 -30 -86 -50
-38 -21 -77 -44 -86 -52 -8 -8 -18 -14 -21 -14 -9 0 -103 -59 -206 -128 -51
-34 -95 -62 -98 -62 -7 0 -110 -79 -209 -160 -24 -19 -71 -57 -105 -85 -101
-81 -411 -380 -535 -516 -169 -186 -339 -398 -432 -539 -20 -30 -39 -57 -43
-60 -3 -3 -17 -21 -30 -40 -14 -19 -32 -43 -40 -52 -9 -10 -38 -57 -64 -105
-26 -49 -72 -131 -102 -183 -29 -52 -64 -117 -78 -145 -83 -173 -116 -246
-116 -257 0 -7 -9 -24 -20 -38 -11 -14 -20 -29 -20 -35 0 -5 -19 -53 -41 -105
-46 -104 -49 -112 -74 -185 -10 -27 -22 -55 -27 -62 -16 -20 -72 -221 -117
-418 -154 -673 -176 -898 -151 -1510 5 -126 14 -257 19 -290 6 -33 20 -143 31
-245 28 -240 90 -551 129 -645 10 -23 58 -192 70 -245 7 -29 32 -99 71 -195 4
-11 14 -36 20 -55 15 -41 68 -164 116 -268 19 -41 34 -76 34 -78 0 -5 46 -107
73 -164 7 -14 24 -43 39 -66 15 -22 32 -52 38 -65 10 -24 31 -60 40 -69 3 -3
14 -21 24 -40 11 -19 24 -39 28 -45 5 -5 47 -68 94 -140 48 -71 97 -141 109
-155 13 -14 48 -61 79 -105 125 -178 141 -200 175 -238 132 -146 189 -208 309
-334 75 -79 139 -143 143 -143 4 0 40 -32 80 -71 107 -102 193 -177 273 -237
39 -29 78 -59 86 -65 8 -7 67 -47 130 -89 63 -43 133 -91 155 -107 57 -41 218
-139 295 -179 36 -19 67 -38 68 -43 2 -5 8 -9 14 -9 9 0 42 -15 283 -130 55
-26 138 -62 185 -80 47 -17 93 -36 102 -41 10 -5 22 -9 28 -9 6 0 39 -13 73
-29 92 -42 515 -179 757 -244 104 -28 235 -53 320 -62 30 -3 66 -8 80 -10 136
-29 462 -42 830 -34 307 7 475 20 624 49 56 11 129 23 164 26 34 4 62 11 62
15 0 5 9 9 20 9 20 0 224 55 240 65 5 3 28 9 52 14 24 5 102 30 173 56 176 63
194 70 201 78 4 4 14 7 23 7 15 0 206 69 268 96 17 8 36 14 42 14 26 0 623
295 699 345 27 17 55 35 63 39 8 3 37 23 65 44 28 20 100 70 160 111 155 105
250 177 319 243 33 31 81 72 107 90 74 53 292 263 396 383 52 61 102 117 111
125 9 8 28 32 43 52 15 20 33 42 40 50 12 12 70 86 90 113 4 6 22 28 41 50 45
54 137 180 167 230 13 22 64 101 114 175 49 74 105 162 124 195 59 103 217
417 236 470 17 45 33 85 57 140 5 11 17 43 28 70 10 28 30 75 44 105 13 30 29
71 35 90 197 634 260 1020 269 1640 4 282 2 368 -11 470 -9 69 -23 188 -31
264 -8 77 -22 166 -30 199 -8 32 -15 68 -15 80 0 12 -14 76 -30 141 -17 66
-30 132 -30 146 0 14 -4 30 -9 36 -5 5 -14 32 -19 59 -19 101 -53 239 -61 250
-4 5 -14 33 -20 60 -14 56 -52 157 -86 225 -12 25 -32 77 -44 115 -13 39 -35
95 -50 125 -38 77 -76 159 -91 200 -7 19 -19 42 -25 50 -7 8 -15 22 -19 30 -3
8 -16 32 -29 52 -42 70 -90 153 -115 198 -14 25 -36 62 -49 83 -26 42 -55 91
-86 150 -12 20 -24 37 -29 37 -4 0 -8 6 -9 13 0 6 -16 32 -34 57 -19 25 -51
70 -72 100 -43 63 -135 177 -185 231 -72 79 -105 116 -152 174 -53 65 -352
367 -398 401 -15 11 -58 49 -96 85 -38 35 -78 71 -88 79 -45 34 -140 114 -149
125 -5 7 -15 14 -21 16 -6 2 -26 16 -45 31 -19 16 -74 55 -124 88 -49 33 -106
70 -125 83 -32 22 -112 69 -209 122 -20 11 -38 22 -41 25 -3 3 -23 15 -45 27
-22 11 -56 30 -75 42 -52 31 -263 137 -285 143 -21 7 -233 93 -300 123 -71 31
-78 34 -195 74 -234 79 -497 151 -645 176 -22 4 -59 13 -83 21 -38 13 -106 24
-217 38 -22 3 -110 10 -195 16 -85 5 -191 14 -235 20 -103 13 -318 17 -520 9z
m595 -1405 c266 -30 571 -101 850 -198 208 -72 369 -142 510 -222 36 -20 102
-56 148 -80 92 -49 143 -81 218 -136 28 -21 55 -38 61 -38 5 0 22 -14 39 -31
16 -17 56 -50 89 -72 130 -89 488 -430 631 -602 142 -171 272 -362 383 -565
29 -52 59 -106 67 -120 53 -91 168 -371 215 -524 21 -70 41 -131 44 -136 10
-16 76 -271 94 -365 94 -479 104 -922 32 -1345 -15 -88 -61 -303 -70 -330 -5
-14 -24 -74 -41 -135 -64 -216 -79 -261 -123 -370 -154 -382 -399 -788 -609
-1010 -36 -38 -81 -88 -99 -110 -63 -75 -202 -218 -290 -297 -81 -73 -103 -91
-159 -135 -197 -152 -328 -239 -553 -368 -231 -132 -601 -281 -857 -345 -47
-11 -101 -25 -120 -30 -70 -18 -187 -41 -260 -51 -288 -38 -327 -40 -595 -41
-228 0 -314 4 -465 21 -417 50 -751 140 -1110 299 -163 72 -228 107 -455 243
-121 73 -347 232 -433 304 -133 112 -323 296 -387 375 -27 34 -77 92 -110 129
-123 135 -262 318 -313 413 -47 86 -72 130 -108 189 -46 77 -168 329 -200 415
-128 344 -195 591 -233 854 -38 267 -44 368 -38 667 3 164 10 330 16 368 6 39
16 104 22 145 45 329 167 724 325 1058 25 53 50 107 55 119 4 12 27 52 50 90
23 37 59 97 79 133 21 36 62 100 91 144 30 43 65 95 79 115 14 21 42 57 62 82
20 24 60 73 89 109 176 215 438 465 669 638 52 40 100 75 105 80 16 13 144 92
149 92 2 0 53 30 112 67 60 36 177 99 259 138 202 96 204 97 330 145 356 135
750 217 1155 239 191 11 421 5 600 -15z"/>
<path d="M6493 9059 c-155 -27 -175 -47 -208 -211 -25 -117 -16 -448 15 -593
29 -137 70 -265 129 -403 46 -108 80 -231 82 -299 1 -26 2 -26 10 7 14 58 -9
185 -61 341 -44 129 -75 245 -100 374 -38 191 -42 545 -7 665 11 37 20 47 58
67 25 12 79 28 120 34 94 15 299 6 399 -16 74 -17 238 -69 273 -87 35 -18 6
-26 -46 -12 -28 8 -99 15 -157 16 -117 1 -157 -11 -265 -76 -33 -20 -86 -41
-117 -47 -65 -13 -73 -24 -27 -34 30 -7 31 -9 24 -44 -4 -20 -10 -81 -13 -136
-7 -104 -18 -131 -71 -179 -27 -25 -26 -37 4 -70 14 -15 25 -37 25 -49 0 -24
22 -92 33 -103 4 -4 7 -27 7 -51 0 -45 25 -83 54 -83 25 0 44 -28 61 -87 23
-80 50 -128 92 -166 34 -32 35 -35 24 -69 -6 -19 -23 -46 -36 -58 -33 -31 -32
-47 3 -25 38 25 80 73 103 117 27 54 26 182 -2 248 -29 67 -67 85 -146 70 -69
-12 -84 -12 -102 -1 -13 8 -28 69 -35 145 -2 17 -8 32 -14 34 -7 2 -12 18 -12
37 0 18 -7 38 -15 45 -21 17 -19 34 8 67 32 37 47 85 47 145 0 72 17 127 56
181 39 53 54 59 54 21 0 -49 60 -204 104 -272 90 -136 252 -280 456 -407 294
-183 448 -309 529 -435 140 -217 107 -497 -77 -654 -34 -29 -26 -6 17 52 49
65 76 135 92 238 10 69 10 91 -5 155 -43 194 -174 333 -521 554 -77 49 -170
113 -207 142 -37 29 -69 53 -72 53 -3 0 1 -19 9 -41 8 -23 15 -65 15 -93 0
-117 43 -228 115 -296 l36 -35 -48 -11 -48 -10 81 -1 c87 -1 144 -15 184 -45
100 -78 124 -251 60 -430 -32 -87 -69 -147 -165 -263 -125 -152 -184 -323
-156 -449 31 -141 118 -253 243 -315 75 -38 113 -45 183 -36 65 8 73 25 12 25
-62 0 -142 51 -181 114 -79 128 -23 295 138 408 394 275 501 415 513 668 5 88
2 119 -16 183 -63 230 -193 371 -581 630 -158 105 -180 121 -180 131 0 15 26
2 132 -67 62 -40 156 -100 208 -132 299 -186 447 -354 490 -560 19 -88 33 -94
25 -10 -18 171 -78 292 -248 494 -174 207 -180 217 -228 400 -48 180 -107 280
-216 364 -32 24 -68 58 -81 75 -51 66 -189 121 -399 157 -170 30 -306 31 -460
4z"/>
<path d="M6677 8508 c-4 -13 1 -18 18 -18 12 0 33 8 45 18 21 17 21 17 -19 17
-30 0 -41 -4 -44 -17z"/>
<path d="M5237 7753 c-10 -16 -66 -232 -81 -313 -43 -225 -59 -467 -41 -623
21 -179 85 -409 162 -587 35 -82 139 -272 162 -296 9 -11 27 -35 41 -54 40
-59 152 -189 255 -296 59 -62 224 -208 314 -279 111 -87 129 -104 107 -105
-64 -1 -435 288 -633 494 -98 101 -222 262 -338 439 -38 59 -73 107 -78 107
-19 0 34 -152 96 -275 81 -157 199 -303 352 -433 50 -42 92 -79 95 -83 3 -3
51 -38 108 -79 88 -63 118 -90 97 -90 -12 0 -129 52 -251 112 -122 61 -309
168 -364 209 -293 222 -445 398 -584 675 -57 115 -119 284 -108 296 13 12 179
27 257 22 44 -3 119 -12 167 -21 48 -9 90 -14 94 -10 3 3 0 40 -7 83 l-14 76
-46 18 c-25 10 -92 28 -150 41 -89 20 -134 23 -314 23 -197 1 -373 -14 -406
-34 -9 -6 -6 -34 16 -127 143 -608 499 -1022 1125 -1306 198 -91 344 -141 605
-212 312 -84 417 -115 500 -150 17 -7 57 -23 90 -36 70 -26 164 -75 253 -132
104 -65 99 -56 -76 143 -47 52 -94 103 -106 113 -11 10 -50 47 -86 81 -36 35
-87 82 -115 106 -83 71 -345 330 -421 415 -146 164 -271 357 -374 579 -77 167
-130 338 -162 526 -17 101 -15 488 3 600 l14 85 29 -3 c56 -6 242 -74 361
-132 119 -57 300 -170 383 -238 l43 -35 -6 79 c-7 74 -9 81 -44 114 -198 193
-453 350 -751 464 -147 57 -165 62 -173 49z"/>
<path d="M8810 7714 c-213 -81 -441 -208 -620 -344 -69 -53 -79 -64 -89 -107
-7 -26 -31 -81 -53 -121 -22 -40 -38 -75 -36 -78 3 -2 18 7 34 21 27 24 73 57
199 143 122 84 477 229 539 220 18 -3 23 -14 33 -83 31 -204 26 -465 -14 -670
-66 -348 -242 -719 -461 -975 -85 -98 -358 -364 -486 -473 -147 -125 -459
-457 -444 -473 3 -2 33 14 67 36 155 101 328 171 616 251 626 174 834 254
1121 434 418 261 659 564 814 1025 26 75 55 223 48 242 -17 42 -524 61 -698
25 -69 -14 -203 -53 -219 -63 -5 -4 -30 -158 -26 -162 2 -3 41 3 87 12 122 24
417 22 433 -3 8 -14 -56 -184 -113 -299 -99 -199 -166 -289 -349 -469 -187
-184 -482 -374 -759 -489 -91 -38 -146 -43 -86 -8 68 39 240 174 329 258 133
126 270 300 331 421 43 86 92 217 92 246 0 21 -17 6 -45 -39 -16 -26 -78 -114
-136 -195 -167 -232 -348 -428 -525 -566 -43 -34 -88 -69 -99 -79 -41 -34
-235 -152 -249 -152 -25 0 -19 13 17 36 116 76 398 331 507 460 166 197 236
302 327 491 127 263 182 485 190 759 7 240 -12 398 -84 671 -33 125 -41 143
-58 142 -11 0 -72 -20 -135 -45z"/>
<path d="M6697 7513 c-4 -6 -39 -30 -79 -54 -137 -81 -234 -160 -269 -217 -28
-47 -33 -65 -37 -136 -3 -75 -1 -88 37 -187 22 -58 53 -128 69 -156 16 -27 37
-65 46 -84 46 -96 204 -277 444 -506 367 -350 435 -428 516 -588 25 -50 53
-122 62 -160 32 -139 16 -352 -37 -488 -27 -68 -24 -68 26 -1 53 72 95 154
132 260 26 74 28 90 28 239 0 142 -3 168 -24 230 -59 174 -162 317 -416 575
-388 395 -454 480 -545 700 -39 96 -44 114 -48 211 -3 84 -1 118 13 160 21 63
61 147 82 171 8 9 13 23 11 29 -3 9 -6 10 -11 2z"/>
<path d="M7226 7200 c-9 -65 -38 -125 -94 -200 -58 -76 -110 -184 -123 -252
-12 -68 1 -157 33 -225 23 -49 45 -70 35 -32 -4 13 -12 53 -18 89 -17 101 11
190 126 400 42 77 70 195 57 243 -9 31 -9 30 -16 -23z"/>
<path d="M5586 6973 c-12 -78 -6 -262 13 -360 51 -261 219 -606 399 -822 75
-90 271 -285 302 -301 l25 -13 -26 29 c-56 63 -192 256 -279 399 -160 260
-328 696 -396 1023 -9 45 -20 82 -24 82 -4 0 -10 -17 -14 -37z"/>
<path d="M8592 6975 c-6 -22 -29 -112 -51 -200 -89 -355 -235 -691 -414 -955
-45 -67 -133 -187 -147 -200 -3 -3 -21 -25 -40 -50 -18 -25 -47 -60 -64 -77
-16 -18 -26 -33 -22 -33 26 0 268 235 371 359 169 206 305 484 366 749 23 101
36 358 22 412 l-10 35 -11 -40z"/>
<path d="M6505 6453 c-16 -112 -31 -171 -76 -294 -62 -171 -81 -265 -81 -409
-1 -255 86 -479 283 -725 91 -115 190 -227 196 -221 2 2 -31 53 -74 112 -156
217 -213 324 -263 497 -53 185 -62 243 -64 402 -1 129 2 163 23 240 13 50 27
97 32 105 4 8 5 -50 2 -130 -7 -185 11 -297 74 -460 58 -148 114 -242 261
-432 172 -224 235 -345 267 -508 29 -152 20 -142 72 -85 114 127 221 315 264
465 34 121 33 290 -3 406 -52 169 -154 309 -374 513 -193 180 -364 355 -440
452 -47 60 -88 109 -90 109 -2 0 -6 -17 -9 -37z"/>
<path d="M4950 5363 c-246 -40 -437 -106 -629 -216 -86 -49 -240 -157 -241
-168 0 -8 187 -110 275 -149 222 -100 497 -184 735 -224 270 -46 667 -46 965
-1 327 50 371 55 482 55 65 0 139 -6 177 -15 79 -18 203 -62 231 -81 40 -28
38 -12 -5 32 -93 94 -224 178 -357 227 -277 101 -480 119 -866 77 -259 -28
-449 -27 -592 4 -151 32 -243 60 -355 108 -106 44 -135 62 -126 77 9 14 152
68 234 88 101 25 317 22 452 -6 137 -29 386 -71 413 -70 12 0 -32 15 -98 33
-211 58 -393 124 -544 201 -67 33 -92 38 -151 28z"/>
<path d="M9067 5318 c-100 -51 -467 -181 -545 -194 -23 -4 -45 -11 -48 -15 -7
-13 -16 -14 250 38 220 43 254 47 391 47 133 0 161 -3 247 -26 101 -28 198
-71 198 -88 0 -12 -95 -57 -220 -103 -257 -96 -500 -118 -850 -77 -160 19
-225 22 -374 17 -197 -6 -267 -18 -440 -73 -129 -41 -164 -58 -276 -134 -72
-49 -206 -170 -175 -159 6 2 39 18 75 35 93 45 231 75 343 76 124 0 179 -7
502 -59 158 -25 191 -27 470 -27 357 0 438 9 750 86 143 35 416 139 583 220
89 44 165 85 169 91 19 31 -307 223 -507 297 -118 44 -292 87 -375 93 -69 6
-72 5 -168 -45z"/>
<path d="M7471 4540 c-102 -16 -220 -61 -282 -107 -94 -71 -91 -74 31 -39 83
24 275 44 580 61 151 8 295 18 320 22 l45 6 -42 8 c-204 38 -556 64 -652 49z"/>
<path d="M6360 4529 c-36 -5 -119 -16 -185 -26 -138 -20 -127 -27 63 -37 459
-25 525 -31 695 -62 43 -7 87 -19 98 -25 47 -24 39 0 -12 39 -63 47 -142 84
-227 107 -66 17 -316 19 -432 4z"/>
<path d="M7031 4100 c-96 -21 -201 -114 -243 -218 -19 -49 -23 -75 -23 -182 0
-121 1 -127 33 -194 39 -82 89 -133 169 -172 52 -26 68 -29 158 -28 88 0 107
3 157 27 184 89 261 329 177 554 -29 77 -123 172 -194 197 -60 21 -174 29
-234 16z m188 -54 c78 -54 125 -182 125 -341 1 -150 -25 -236 -92 -305 -60
-62 -107 -76 -180 -55 -58 17 -93 53 -128 130 -55 121 -52 362 7 475 22 43 84
105 119 119 40 17 106 6 149 -23z"/>
<path d="M7875 4093 c-92 -28 -154 -82 -201 -175 -111 -220 -39 -492 156 -586
48 -23 68 -26 155 -27 89 0 107 3 163 29 134 62 212 196 212 365 0 130 -31
221 -104 300 -89 96 -246 136 -381 94z m158 -24 c86 -24 148 -119 174 -269 26
-146 -7 -317 -75 -394 -59 -66 -158 -88 -224 -49 -45 26 -94 94 -114 156 -21
67 -29 236 -15 310 14 76 55 168 91 202 25 24 88 53 115 55 6 0 27 -5 48 -11z"/>
<path d="M5188 4094 c-14 -13 -9 -24 11 -24 11 0 33 -11 48 -24 l28 -24 3
-304 c2 -337 2 -341 -61 -371 -20 -10 -37 -23 -37 -28 0 -6 70 -8 175 -7 175
3 213 12 137 33 -59 16 -73 55 -70 195 l3 115 125 6 c136 6 177 18 223 65 47
47 61 83 61 154 0 103 -41 165 -134 200 -39 15 -500 27 -512 14z m419 -54 c43
-26 61 -55 74 -121 14 -69 0 -126 -42 -174 -37 -42 -85 -58 -159 -53 l-55 3
-3 170 c-1 93 0 175 2 182 9 22 144 17 183 -7z"/>
<path d="M5897 4093 c-14 -13 -6 -22 23 -28 63 -14 65 -26 65 -360 0 -334 -2
-346 -65 -360 -16 -4 -30 -13 -30 -21 0 -11 29 -14 165 -14 133 0 165 3 165
14 0 7 -13 16 -30 19 -55 11 -65 43 -65 207 l0 145 153 3 152 3 0 -145 c0
-164 -7 -190 -57 -208 -18 -7 -33 -18 -33 -25 0 -10 36 -13 165 -13 133 0 165
3 165 14 0 7 -13 16 -30 19 -16 4 -37 18 -47 34 -16 25 -18 55 -18 328 0 334
2 346 65 360 17 4 29 12 27 18 -6 18 -327 22 -327 4 0 -7 15 -18 33 -25 49
-18 57 -45 57 -192 l0 -130 -149 0 -150 0 -7 47 c-10 68 3 222 21 250 9 13 29
26 45 30 17 3 30 12 30 19 0 11 -31 14 -158 14 -87 0 -162 -3 -165 -7z"/>
<path d="M8455 4089 c-4 -6 -5 -11 -4 -12 2 -2 21 -10 41 -19 30 -14 38 -24
45 -55 13 -63 8 -577 -6 -611 -9 -21 -26 -36 -53 -47 -26 -10 -38 -19 -31 -26
6 -6 120 -8 293 -7 l284 3 12 60 c22 106 26 145 15 145 -5 0 -12 -14 -16 -31
-19 -85 -115 -138 -257 -142 l-93 -2 -3 320 c-2 288 0 323 15 355 13 24 28 37
51 44 17 5 32 15 32 22 0 11 -32 14 -159 14 -103 0 -162 -4 -166 -11z"/>
<path d="M7090 2900 c0 -12 29 -72 39 -80 4 -3 28 -37 54 -76 l47 -70 0 -103
c0 -92 2 -102 18 -99 14 3 18 19 22 109 l5 106 53 74 c62 88 88 136 78 146
-13 13 -39 -12 -93 -93 -30 -43 -58 -80 -62 -82 -4 -1 -36 38 -71 88 -56 80
-90 110 -90 80z"/>
<path d="M5096 2890 c-65 -20 -99 -86 -72 -139 15 -28 34 -39 122 -72 67 -25
86 -47 82 -95 -6 -72 -99 -103 -166 -55 -36 25 -55 27 -50 4 10 -55 140 -83
204 -44 45 28 69 84 55 131 -14 48 -36 66 -107 91 -84 29 -104 44 -104 78 0
59 67 85 130 50 29 -17 43 -20 51 -12 33 33 -81 82 -145 63z"/>
<path d="M6538 2892 l-58 -3 0 -209 c0 -202 1 -210 20 -210 17 0 19 8 22 86
l3 86 69 4 c37 1 80 8 95 14 57 24 84 99 58 162 -24 58 -80 77 -209 70z m127
-46 c42 -18 59 -48 50 -92 -8 -44 -37 -62 -105 -64 -97 -3 -90 -9 -90 78 0 43
3 82 7 85 12 12 103 7 138 -7z"/>
<path d="M7886 2872 c-9 -17 -34 -77 -57 -134 -22 -56 -54 -136 -70 -176 -35
-87 -35 -94 -8 -90 16 2 28 21 48 73 l27 70 89 0 89 0 27 -70 c20 -53 31 -71
48 -73 12 -2 21 2 20 10 0 7 -37 103 -82 213 -88 212 -103 232 -131 177z m67
-126 c15 -40 27 -76 27 -79 0 -10 -130 -9 -130 1 -1 19 56 152 65 152 5 0 22
-33 38 -74z"/>
<path d="M9063 2893 c-40 -5 -44 -30 -5 -35 l27 -3 0 -175 0 -175 -27 -3 c-16
-2 -28 -9 -28 -18 0 -11 17 -14 75 -14 54 0 75 4 75 13 0 7 -10 17 -22 22 -22
10 -23 14 -25 178 -1 122 1 167 10 168 7 1 19 2 27 3 8 0 15 10 15 21 0 17 -7
20 -45 21 -25 1 -60 -1 -77 -3z"/>
<path d="M5600 2876 c0 -9 12 -16 28 -18 l27 -3 0 -175 0 -175 -27 -3 c-16 -2
-28 -9 -28 -18 0 -11 17 -14 80 -14 63 0 80 3 80 14 0 9 -12 16 -27 18 l-28 3
0 175 0 175 28 3 c15 2 27 9 27 18 0 11 -17 14 -80 14 -63 0 -80 -3 -80 -14z"/>
<path d="M8422 2684 c3 -190 5 -209 21 -212 15 -3 17 6 17 82 0 82 1 86 24 92
13 3 38 4 57 2 32 -3 37 -8 76 -90 33 -69 47 -88 63 -88 26 0 22 15 -26 112
l-34 67 29 20 c59 42 67 139 17 190 -25 24 -34 26 -136 29 l-110 4 2 -208z
m213 141 c33 -32 33 -78 0 -111 -23 -23 -31 -25 -97 -22 l-73 3 -3 45 c-2 24
-1 59 3 77 l6 33 70 0 c61 0 73 -3 94 -25z"/>
</g>
</svg>
